<svg xmlns="http://www.w3.org/2000/svg" width="465.54" height="420.7" viewBox="0 0 465.54 420.7"><title>Asset 1</title><g id="Layer_2" data-name="Layer 2"><g id="Layer_1-2" data-name="Layer 1"><circle cx="323.32" cy="196.84" r="124.58" style="fill:#f1e321"/><path d="M337.51,238.14s3.75,58.64,7.58,62.65c4,4.21,50.2,28.15,57.83,31.72,14,6.54,28.95,17.92,34.51,30.16,7.56,16.64,28.12,58,28.12,58H418.46l-9.71-15.4-7,15.4h-203s14.21-43.84,21.4-58c6.55-12.86,17.33-29.22,31.82-37.09,8.25-4.48,43.94-21.81,45.13-26s5.69-61.47,5.69-61.47Z" style="fill:#8a6e63"/><path d="M299.4.8A102,102,0,0,1,183.73,148.65,109.71,109.71,0,1,0,299.4.8Z" style="fill:#f1e321"/><path d="M299,282.8a81.62,81.62,0,0,0,41.92-4c-2-18.09-3.45-40.65-3.45-40.65H302.82S300.75,264.53,299,282.8Z" style="fill:#604d49"/><circle cx="295.92" cy="162.82" r="87.73" style="fill:#755d56"/><circle cx="289.81" cy="156.71" r="81.63" style="fill:#8a6e63"/><circle cx="325.85" cy="133.02" r="10.94" style="fill:#3d2722"/><circle cx="243.96" cy="133.02" r="10.94" style="fill:#3d2722"/><path d="M312.15,167.57a27.81,27.81,0,1,1-55.61,0Z" style="fill:#e7e9eb"/><path d="M312.15,50.18A101.47,101.47,0,0,0,299.4.8,109.55,109.55,0,0,0,176.6,109.71a109.41,109.41,0,0,0,7.14,38.94A102,102,0,0,0,312.15,50.18Z" style="fill:#f1e321"/><circle cx="373.42" cy="158.07" r="22.6" style="fill:#8a6e63"/><path d="M402.92,332.5c14,6.54,28.95,17.92,34.51,30.16,7.56,16.64,28.12,58,28.12,58H418.46l-9.71-15.4-7,15.4h-203s14.21-43.84,21.4-58c6.55-12.86,17.33-29.22,31.82-37.09C260.24,321.16,395.28,328.94,402.92,332.5Z" style="fill:#ff9eff"/><path d="M57.09,208a57.09,57.09,0,1,0,57.09,57.09A57.09,57.09,0,0,0,57.09,208Zm0,105A47.93,47.93,0,1,1,105,265.12,47.93,47.93,0,0,1,57.09,313.05Z" style="fill:#f5d4b0"/><path d="M57.09,217.19A47.93,47.93,0,1,0,105,265.12,47.93,47.93,0,0,0,57.09,217.19Zm0,63.13a15.2,15.2,0,1,1,15.2-15.2A15.2,15.2,0,0,1,57.09,280.33Z" style="fill:#ff9eff"/><line x1="38.79" y1="231.43" x2="35.84" y2="241.14" style="fill:none;stroke:#00d1bd;stroke-linecap:round;stroke-miterlimit:10;stroke-width:4.6394305229187px"/><line x1="27.26" y1="286.91" x2="17.74" y2="283.4" style="fill:none;stroke:#00d1bd;stroke-linecap:round;stroke-miterlimit:10;stroke-width:4.6394305229187px"/><line x1="90.31" y1="241.63" x2="87.37" y2="251.35" style="fill:none;stroke:#00d1bd;stroke-linecap:round;stroke-miterlimit:10;stroke-width:4.6394305229187px"/><line x1="48.58" y1="231.8" x2="57.94" y2="236.29" style="fill:none;stroke:#7f50ff;stroke-linecap:round;stroke-miterlimit:10;stroke-width:4.6394305229187px"/><line x1="59.71" y1="293.97" x2="64.46" y2="302.94" style="fill:none;stroke:#7f50ff;stroke-linecap:round;stroke-miterlimit:10;stroke-width:4.6394305229187px"/><line x1="27.94" y1="261.16" x2="19" y2="270.62" style="fill:none;stroke:#7f50ff;stroke-linecap:round;stroke-miterlimit:10;stroke-width:4.6394305229187px"/><line x1="20.03" y1="255.06" x2="29.3" y2="250.92" style="fill:none;stroke:#e6d821;stroke-linecap:round;stroke-miterlimit:10;stroke-width:4.6394305229187px"/><line x1="42.21" y1="294.97" x2="32.42" y2="297.65" style="fill:none;stroke:#f0f;stroke-linecap:round;stroke-miterlimit:10;stroke-width:4.6394305229187px"/><line x1="88.74" y1="233.27" x2="78.94" y2="235.95" style="fill:none;stroke:#f0f;stroke-linecap:round;stroke-miterlimit:10;stroke-width:4.6394305229187px"/><line x1="62.24" y1="222.71" x2="68.43" y2="230.76" style="fill:none;stroke:#e6d821;stroke-linecap:round;stroke-miterlimit:10;stroke-width:4.6394305229187px"/><line x1="40.88" y1="277.42" x2="30.72" y2="277.42" style="fill:none;stroke:#49a8f6;stroke-linecap:round;stroke-miterlimit:10;stroke-width:4.6394305229187px"/><line x1="84.02" y1="289.33" x2="73.87" y2="289.33" style="fill:none;stroke:#49a8f6;stroke-linecap:round;stroke-miterlimit:10;stroke-width:4.6394305229187px"/><path d="M163.51,420.7l-46.18-94.16s0-31.77-4.2-40.94-24-19.3-32.31-22.31-6.94,5.78,1,11.8c8.19,6.23,18.62,14,18.75,22.06s-15.71,22-35.4,24.5l31.2,23.78,21,75.27Z" style="fill:#8a6e63"/><path d="M75.08,329.24c12.83-2.46,24.06-9.15,31.42-21.37-4.11-2.4-4.43-7.08-6-11.45,0,.24.07.49.07.73.14,8.08-15.71,22-35.4,24.5Z" style="fill:#604d49"/></g></g></svg>
