<svg xmlns="http://www.w3.org/2000/svg" width="536.39" height="351.97" viewBox="0 0 536.39 351.97"><title>Asset 2</title><g id="Layer_2" data-name="Layer 2"><g id="Layer_1-2" data-name="Layer 1"><rect x="271.53" y="20.15" width="258.17" height="111.46" rx="3.46" ry="3.46" transform="translate(15.73 -58.71) rotate(8.55)" style="fill:#bebebe"/><rect x="271.84" y="18.09" width="258.17" height="111.46" rx="3.46" ry="3.46" transform="matrix(0.99, 0.15, -0.15, 0.99, 15.43, -58.78)" style="fill:#e4e4e4"/><rect x="299.66" y="23.17" width="20.11" height="20.8" rx="2.08" ry="2.08" transform="translate(8.43 -45.67) rotate(8.55)" style="fill:#bebebe"/><rect x="323.44" y="26.74" width="20.11" height="20.8" rx="2.08" ry="2.08" transform="matrix(0.99, 0.15, -0.15, 0.99, 9.23, -49.16)" style="fill:#bebebe"/><rect x="347.22" y="30.32" width="20.11" height="20.8" rx="2.08" ry="2.08" transform="translate(10.02 -52.65) rotate(8.55)" style="fill:#bebebe"/><rect x="370.99" y="33.89" width="20.11" height="20.8" rx="2.08" ry="2.08" transform="translate(10.82 -56.15) rotate(8.55)" style="fill:#bebebe"/><rect x="394.77" y="37.47" width="20.11" height="20.8" rx="2.08" ry="2.08" transform="translate(11.61 -59.64) rotate(8.55)" style="fill:#bebebe"/><rect x="418.55" y="41.04" width="20.11" height="20.8" rx="2.08" ry="2.08" transform="translate(12.41 -63.14) rotate(8.55)" style="fill:#bebebe"/><rect x="442.33" y="44.61" width="20.11" height="20.8" rx="2.08" ry="2.08" transform="translate(13.2 -66.63) rotate(8.55)" style="fill:#bebebe"/><rect x="466.1" y="48.19" width="20.11" height="20.8" rx="2.08" ry="2.08" transform="translate(14 -70.13) rotate(8.55)" style="fill:#bebebe"/><rect x="489.88" y="51.76" width="20.11" height="20.8" rx="2.08" ry="2.08" transform="translate(14.79 -73.62) rotate(8.55)" style="fill:#bebebe"/><rect x="308.47" y="49.34" width="20.11" height="20.8" rx="2.08" ry="2.08" transform="translate(12.42 -46.68) rotate(8.55)" style="fill:#bebebe"/><rect x="332.25" y="52.91" width="20.11" height="20.8" rx="2.08" ry="2.08" transform="translate(13.21 -50.18) rotate(8.55)" style="fill:#bebebe"/><rect x="356.03" y="56.48" width="20.11" height="20.8" rx="2.08" ry="2.08" transform="translate(14.01 -53.67) rotate(8.55)" style="fill:#bebebe"/><rect x="379.8" y="60.06" width="20.11" height="20.8" rx="2.08" ry="2.08" transform="translate(14.8 -57.17) rotate(8.55)" style="fill:#bebebe"/><rect x="403.58" y="63.63" width="20.11" height="20.8" rx="2.08" ry="2.08" transform="translate(15.6 -60.66) rotate(8.55)" style="fill:#bebebe"/><rect x="427.36" y="67.21" width="20.11" height="20.8" rx="2.08" ry="2.08" transform="translate(16.4 -64.16) rotate(8.55)" style="fill:#bebebe"/><rect x="451.13" y="70.78" width="20.11" height="20.8" rx="2.08" ry="2.08" transform="translate(17.19 -67.65) rotate(8.55)" style="fill:#bebebe"/><rect x="474.91" y="74.35" width="20.11" height="20.8" rx="2.08" ry="2.08" transform="translate(17.99 -71.15) rotate(8.55)" style="fill:#bebebe"/><rect x="498.69" y="77.93" width="20.11" height="20.8" rx="2.08" ry="2.08" transform="translate(18.78 -74.64) rotate(8.55)" style="fill:#bebebe"/><rect x="293.5" y="71.93" width="20.11" height="20.8" rx="2.08" ry="2.08" transform="translate(15.61 -44.21) rotate(8.55)" style="fill:#bebebe"/><rect x="317.28" y="75.5" width="20.11" height="20.8" rx="2.08" ry="2.08" transform="translate(16.41 -47.7) rotate(8.55)" style="fill:#bebebe"/><rect x="341.06" y="79.08" width="20.11" height="20.8" rx="2.08" ry="2.08" transform="translate(17.2 -51.2) rotate(8.55)" style="fill:#bebebe"/><rect x="364.83" y="82.65" width="20.11" height="20.8" rx="2.08" ry="2.08" transform="translate(18 -54.69) rotate(8.55)" style="fill:#bebebe"/><rect x="388.61" y="86.22" width="20.11" height="20.8" rx="2.08" ry="2.08" transform="translate(18.79 -58.19) rotate(8.55)" style="fill:#bebebe"/><rect x="412.39" y="89.8" width="20.11" height="20.8" rx="2.08" ry="2.08" transform="translate(19.59 -61.68) rotate(8.55)" style="fill:#bebebe"/><rect x="436.17" y="93.37" width="20.11" height="20.8" rx="2.08" ry="2.08" transform="translate(20.38 -65.18) rotate(8.55)" style="fill:#bebebe"/><rect x="459.94" y="96.95" width="20.11" height="20.8" rx="2.08" ry="2.08" transform="translate(21.18 -68.67) rotate(8.55)" style="fill:#bebebe"/><rect x="483.72" y="100.52" width="20.11" height="20.8" rx="2.08" ry="2.08" transform="translate(21.97 -72.16) rotate(8.55)" style="fill:#bebebe"/><rect x="3.62" y="73.54" width="171.81" height="228.85" transform="translate(-5.97 2.96) rotate(-1.83)" style="fill:#380089"/><rect x="21.85" y="88.77" width="153.81" height="212.97" transform="matrix(1, -0.03, 0.03, 1, -6.2, 3.26)" style="fill:#00d1bd"/><line x1="48.32" y1="176.38" x2="147.89" y2="173.19" style="fill:none;stroke:#fff;stroke-miterlimit:10;stroke-width:5.53767438104546px"/><line x1="48.8" y1="191.23" x2="148.36" y2="188.05" style="fill:none;stroke:#fff;stroke-miterlimit:10;stroke-width:5.53767438104546px"/><line x1="49.27" y1="206.09" x2="148.84" y2="202.9" style="fill:none;stroke:#fff;stroke-miterlimit:10;stroke-width:5.53767438104546px"/><line x1="49.75" y1="220.94" x2="149.31" y2="217.75" style="fill:none;stroke:#fff;stroke-miterlimit:10;stroke-width:5.53767438104546px"/><line x1="46.42" y1="116.97" x2="145.99" y2="113.78" style="fill:none;stroke:#fff;stroke-miterlimit:10;stroke-width:5.53767438104546px"/><line x1="46.89" y1="131.82" x2="146.46" y2="128.64" style="fill:none;stroke:#fff;stroke-miterlimit:10;stroke-width:5.53767438104546px"/><line x1="47.37" y1="146.68" x2="146.94" y2="143.49" style="fill:none;stroke:#fff;stroke-miterlimit:10;stroke-width:5.53767438104546px"/><line x1="47.85" y1="161.53" x2="147.41" y2="158.34" style="fill:none;stroke:#fff;stroke-miterlimit:10;stroke-width:5.53767438104546px"/><line x1="50.22" y1="235.79" x2="128.91" y2="233.27" style="fill:none;stroke:#fff;stroke-miterlimit:10;stroke-width:5.53767438104546px"/><polygon points="154.44 233.22 4.71 223.32 7.32 305.08 179.04 299.58 154.44 233.22" style="fill:#56269b"/><rect x="175.59" y="68.03" width="171.81" height="228.85" transform="translate(528.7 356.46) rotate(178.17)" style="fill:#380089"/><rect x="158.59" y="63.9" width="153.81" height="212.97" transform="translate(467.19 345.9) rotate(-178.74)" style="fill:#f0f0f0"/><line x1="285.74" y1="151.01" x2="186.14" y2="148.83" style="fill:none;stroke:#a5a5a5;stroke-miterlimit:10;stroke-width:5.53767438104546px"/><line x1="285.41" y1="165.87" x2="185.82" y2="163.68" style="fill:none;stroke:#a5a5a5;stroke-miterlimit:10;stroke-width:5.53767438104546px"/><line x1="285.09" y1="180.72" x2="185.49" y2="178.54" style="fill:none;stroke:#a5a5a5;stroke-miterlimit:10;stroke-width:5.53767438104546px"/><line x1="284.76" y1="195.58" x2="185.17" y2="193.39" style="fill:none;stroke:#a5a5a5;stroke-miterlimit:10;stroke-width:5.53767438104546px"/><line x1="287.04" y1="91.58" x2="187.45" y2="89.4" style="fill:none;stroke:#a5a5a5;stroke-miterlimit:10;stroke-width:5.53767438104546px"/><line x1="286.71" y1="106.44" x2="187.12" y2="104.26" style="fill:none;stroke:#a5a5a5;stroke-miterlimit:10;stroke-width:5.53767438104546px"/><line x1="286.39" y1="121.3" x2="186.79" y2="119.11" style="fill:none;stroke:#a5a5a5;stroke-miterlimit:10;stroke-width:5.53767438104546px"/><line x1="286.06" y1="136.15" x2="186.47" y2="133.97" style="fill:none;stroke:#a5a5a5;stroke-miterlimit:10;stroke-width:5.53767438104546px"/><line x1="284.43" y1="210.44" x2="205.73" y2="208.71" style="fill:none;stroke:#a5a5a5;stroke-miterlimit:10;stroke-width:5.53767438104546px"/><polygon points="199.6 231.78 348.4 212.32 351.02 294.08 179.3 299.57 199.6 231.78" style="fill:#56269b"/><path d="M457.08,218.08c-8.9-10-28-13.24-48.32.28" style="fill:none;stroke:#7f50ff;stroke-linecap:round;stroke-miterlimit:10;stroke-width:5.53767438104546px"/><rect x="293.4" y="171.59" width="117.81" height="74.24" rx="3.46" ry="3.46" transform="translate(-30.21 62.55) rotate(-9.73)" style="fill:#e4e4e4"/><rect x="364.33" y="181.44" width="32.16" height="24.1" transform="translate(-27.23 67.08) rotate(-9.73)" style="fill:#7f50ff"/><line x1="303.32" y1="196.94" x2="344.77" y2="190.03" style="fill:none;stroke:#a5a5a5;stroke-miterlimit:10;stroke-width:5.53767438104546px"/><line x1="305.86" y1="212.16" x2="347.31" y2="205.25" style="fill:none;stroke:#a5a5a5;stroke-miterlimit:10;stroke-width:5.53767438104546px"/><line x1="308.34" y1="227.04" x2="349.79" y2="220.13" style="fill:none;stroke:#a5a5a5;stroke-miterlimit:10;stroke-width:5.53767438104546px"/><circle cx="395.38" cy="225.18" r="7.71" style="fill:#fff"/><path d="M395.38,225.18c7.53-1.65,14.85-2,22.07.47s13.78,8.41,14.54,16c.91,9.11-6.87,17.19-15.54,20.12s-18.09,2-27.24,1.75-18.88.18-26.47,5.31c-10.31,7-13.74,20.31-16.4,32.47-2.19,10-4.37,20.51-1.67,30.4s12,18.8,22.15,17.34c9.06-1.3,15.24-10,18.32-18.59s4.25-18,8.86-25.91c13.15-22.55,47.42-23.57,63.17-44.4a37.73,37.73,0,0,0,7.24-27.26c-.72-5.6-3.58-10.58-7.33-14.8" style="fill:none;stroke:#7f50ff;stroke-linecap:round;stroke-miterlimit:10;stroke-width:5.53767438104546px"/></g></g></svg>
