<svg xmlns="http://www.w3.org/2000/svg" width="535.42" height="293.75" viewBox="0 0 535.42 293.75"><title>Asset 2</title><g id="Layer_2" data-name="Layer 2"><g id="Layer_1-2" data-name="Layer 1"><circle cx="456.98" cy="81.4" r="78.43" transform="translate(-2.19 13.42) rotate(-1.68)" style="fill:#dcdcdc"/><path d="M457,127.37a46,46,0,0,1-1.32-91.93l1.37,0a46,46,0,0,1,1.32,91.93Z" style="fill:#42210b"/><path d="M457,39.47a41.92,41.92,0,0,1,1.2,83.83l-1.25,0a41.92,41.92,0,0,1-1.2-83.83l1.25,0m0-8.11v0l-1.49,0a50,50,0,0,0,1.44,100l1.49,0a50,50,0,0,0-1.44-100Z" style="fill:#b6b6b6"/><path d="M410.44,77.45c.15,5.15-16.74,2.31-16.38-6.14.65-14.85,7.43-6.33,16-6" style="fill:none;stroke:#b6b6b6;stroke-linecap:round;stroke-miterlimit:10;stroke-width:8.11007815599442px;fill-rule:evenodd"/><path d="M428.22,111.89c-12.44-37.74,48.72-19.39,57.52-61a41.92,41.92,0,1,1-57.52,61Z" style="fill:#603813"/><circle cx="78.43" cy="215.31" r="78.43" style="fill:#efe9b3"/><path d="M76.56,253.71a38.4,38.4,0,1,1,38.4-38.4A38.44,38.44,0,0,1,76.56,253.71Z" style="fill:#399f4a"/><path d="M76.56,181a34.34,34.34,0,1,1-34.34,34.34A34.34,34.34,0,0,1,76.56,181m0-8.11A42.45,42.45,0,1,0,119,215.31a42.5,42.5,0,0,0-42.45-42.45Z" style="fill:#e6d821"/><path d="M52.28,239.6C43,208.39,61.22,204.24,100.85,191A34.34,34.34,0,1,1,52.28,239.6Z" style="fill:#80b03f"/><rect x="262.19" y="120.5" width="110.05" height="114.66" transform="translate(621.67 376.7) rotate(-176.12)" style="fill:#d0d0d0"/><rect x="248.92" y="109.58" width="110.05" height="114.66" transform="translate(611.16 327.75) rotate(178.86)" style="fill:#dcdcdc"/><rect x="293.21" y="131.4" width="110.05" height="114.66" transform="matrix(-0.99, 0.16, -0.16, -0.99, 722.27, 319.06)" style="fill:#e8e8e8"/><path d="M330,261.87A63.18,63.18,0,1,0,265.61,200,63.18,63.18,0,0,0,330,261.87Zm-2.31-116.2a53,53,0,1,1-52,54.09A53,53,0,0,1,327.72,145.67Z" style="fill:#eac9a5"/><path d="M329.83,251.74a53,53,0,1,0-54.09-52A53,53,0,0,0,329.83,251.74Z" style="fill:#42210b"/><line x1="349.76" y1="235.59" x2="352.81" y2="224.78" style="fill:none;stroke:#00d1bd;stroke-linecap:round;stroke-miterlimit:10;stroke-width:3.42055855819788px"/><line x1="361.3" y1="173.95" x2="371.92" y2="177.63" style="fill:none;stroke:#00d1bd;stroke-linecap:round;stroke-miterlimit:10;stroke-width:3.42055855819788px"/><line x1="292.53" y1="225.43" x2="295.57" y2="214.62" style="fill:none;stroke:#00d1bd;stroke-linecap:round;stroke-miterlimit:10;stroke-width:3.42055855819788px"/><line x1="338.93" y1="235.4" x2="328.46" y2="230.64" style="fill:none;stroke:#7f50ff;stroke-linecap:round;stroke-miterlimit:10;stroke-width:3.42055855819788px"/><line x1="325.24" y1="166.85" x2="319.78" y2="157.03" style="fill:none;stroke:#7f50ff;stroke-linecap:round;stroke-miterlimit:10;stroke-width:3.42055855819788px"/><line x1="361.11" y1="202.46" x2="370.8" y2="191.79" style="fill:none;stroke:#7f50ff;stroke-linecap:round;stroke-miterlimit:10;stroke-width:3.42055855819788px"/><line x1="370" y1="209.03" x2="359.84" y2="213.82" style="fill:none;stroke:#e6d821;stroke-linecap:round;stroke-miterlimit:10;stroke-width:3.42055855819788px"/><line x1="344.58" y1="165.36" x2="355.35" y2="162.18" style="fill:none;stroke:#f0f;stroke-linecap:round;stroke-miterlimit:10;stroke-width:3.42055855819788px"/><line x1="294.46" y1="234.66" x2="305.23" y2="231.47" style="fill:none;stroke:#f0f;stroke-linecap:round;stroke-miterlimit:10;stroke-width:3.42055855819788px"/><line x1="324.01" y1="245.75" x2="316.98" y2="236.98" style="fill:none;stroke:#e6d821;stroke-linecap:round;stroke-miterlimit:10;stroke-width:3.42055855819788px"/><line x1="346.44" y1="184.75" x2="357.68" y2="184.52" style="fill:none;stroke:#49a8f6;stroke-linecap:round;stroke-miterlimit:10;stroke-width:3.42055855819788px"/><line x1="298.44" y1="172.52" x2="309.68" y2="172.3" style="fill:none;stroke:#49a8f6;stroke-linecap:round;stroke-miterlimit:10;stroke-width:3.42055855819788px"/><circle cx="387.87" cy="194.44" r="8.01" transform="translate(-3.79 7.75) rotate(-1.14)" style="fill:#e8e8e8"/><circle cx="380.65" cy="187.21" r="8.01" transform="translate(-3.65 7.6) rotate(-1.14)" style="fill:#e8e8e8"/><circle cx="378.55" cy="178.48" r="8.01" transform="translate(-3.47 7.56) rotate(-1.14)" style="fill:#e8e8e8"/><circle cx="380.28" cy="168.77" r="8.01" transform="translate(-3.28 7.59) rotate(-1.14)" style="fill:#e8e8e8"/><ellipse cx="388.66" cy="177.93" rx="8.01" ry="16.03" transform="translate(-3.46 7.76) rotate(-1.14)" style="fill:#e8e8e8"/><path d="M379.1,146c5.69,0,5.7-8.85,0-8.85s-5.7,8.85,0,8.85Z" style="fill:#eac9a5"/><path d="M407.41,217.74c5.69,0,5.7-8.85,0-8.85s-5.7,8.85,0,8.85Z" style="fill:#33261e"/><path d="M388.84,156.27a8.61,8.61,0,0,1-.91-.26c-.11,0-.5-.13,0,0a2.68,2.68,0,0,1-.46-.22,2.21,2.21,0,1,0-2.23,3.82,11,11,0,0,0,2.46.93,2.21,2.21,0,0,0,1.18-4.27Z" style="fill:#eac9a5"/><path d="M406,221.53a8.61,8.61,0,0,1-.91-.26c-.11,0-.5-.13,0,0a2.68,2.68,0,0,1-.46-.22,2.21,2.21,0,0,0-2.23,3.82,11,11,0,0,0,2.46.93,2.21,2.21,0,0,0,1.18-4.27Z" style="fill:#eac9a5"/><path d="M407,181a8.61,8.61,0,0,1-.91-.26c-.11,0-.5-.13,0,0a2.68,2.68,0,0,1-.46-.22,2.21,2.21,0,1,0-2.23,3.82,11,11,0,0,0,2.46.93A2.21,2.21,0,0,0,407,181Z" style="fill:#42210b"/><rect x="177.22" y="53.68" width="110.05" height="114.66" transform="translate(-12.65 31.72) rotate(-7.61)" style="fill:#d0d0d0"/><rect x="179" y="10.64" width="110.05" height="114.66" transform="translate(-9.2 52.78) rotate(-12.62)" style="fill:#dcdcdc"/><rect x="144.65" y="49.16" width="110.05" height="114.66" transform="translate(-24.77 77.57) rotate(-20.73)" style="fill:#e8e8e8"/><path d="M202.95,31.2A63.18,63.18,0,1,0,278.4,79,63.18,63.18,0,0,0,202.95,31.2Zm25.4,113.41a53,53,0,1,1,40.17-63.35A53,53,0,0,1,228.34,144.61Z" style="fill:#eac9a5"/><path d="M205.16,41.08a53,53,0,1,0,63.35,40.17A53,53,0,0,0,205.16,41.08Zm15.27,68.18a16.82,16.82,0,1,1,12.74-20.09A16.82,16.82,0,0,1,220.43,109.26Z" style="fill:#ff9eff"/><line x1="188.84" y1="60.88" x2="188.01" y2="72.09" style="fill:none;stroke:#00d1bd;stroke-linecap:round;stroke-miterlimit:10;stroke-width:3.42055855819788px"/><line x1="189.81" y1="123.59" x2="178.67" y2="122.1" style="fill:none;stroke:#00d1bd;stroke-linecap:round;stroke-miterlimit:10;stroke-width:3.42055855819788px"/><line x1="246.96" y1="59.44" x2="246.12" y2="70.65" style="fill:none;stroke:#00d1bd;stroke-linecap:round;stroke-miterlimit:10;stroke-width:3.42055855819788px"/><line x1="199.5" y1="58.92" x2="210.7" y2="61.5" style="fill:none;stroke:#7f50ff;stroke-linecap:round;stroke-miterlimit:10;stroke-width:3.42055855819788px"/><line x1="226.56" y1="123.36" x2="233.86" y2="131.9" style="fill:none;stroke:#7f50ff;stroke-linecap:round;stroke-miterlimit:10;stroke-width:3.42055855819788px"/><line x1="184.32" y1="95.61" x2="176.95" y2="107.99" style="fill:none;stroke:#7f50ff;stroke-linecap:round;stroke-miterlimit:10;stroke-width:3.42055855819788px"/><line x1="174.3" y1="90.94" x2="183.31" y2="84.22" style="fill:none;stroke:#e6d821;stroke-linecap:round;stroke-miterlimit:10;stroke-width:3.42055855819788px"/><line x1="207.91" y1="128.68" x2="197.98" y2="133.94" style="fill:none;stroke:#f0f;stroke-linecap:round;stroke-miterlimit:10;stroke-width:3.42055855819788px"/><line x1="243.23" y1="50.79" x2="233.3" y2="56.05" style="fill:none;stroke:#f0f;stroke-linecap:round;stroke-miterlimit:10;stroke-width:3.42055855819788px"/><line x1="212.06" y1="45.79" x2="220.69" y2="52.99" style="fill:none;stroke:#e6d821;stroke-linecap:round;stroke-miterlimit:10;stroke-width:3.42055855819788px"/><line x1="202.22" y1="110.05" x2="191.25" y2="112.5" style="fill:none;stroke:#49a8f6;stroke-linecap:round;stroke-miterlimit:10;stroke-width:3.42055855819788px"/><line x1="251.69" y1="112.47" x2="240.73" y2="114.93" style="fill:none;stroke:#49a8f6;stroke-linecap:round;stroke-miterlimit:10;stroke-width:3.42055855819788px"/><circle cx="159.69" cy="108.8" r="8.01" transform="translate(-19.91 37.52) rotate(-12.62)" style="fill:#e8e8e8"/><circle cx="168.21" cy="114.44" r="8.01" transform="translate(-20.94 39.52) rotate(-12.62)" style="fill:#e8e8e8"/><circle cx="172.01" cy="122.58" r="8.01" transform="translate(-22.63 40.55) rotate(-12.62)" style="fill:#e8e8e8"/><circle cx="172.24" cy="132.44" r="8.01" transform="translate(-24.78 40.84) rotate(-12.62)" style="fill:#e8e8e8"/><ellipse cx="162.21" cy="125.13" rx="8.01" ry="16.03" transform="translate(-23.42 38.47) rotate(-12.62)" style="fill:#e8e8e8"/><path d="M178.81,163.28c5.69,0,5.7-8.85,0-8.85s-5.7,8.85,0,8.85Z" style="fill:#eac9a5"/><path d="M166.49,146.4l.47,0,.19,0-.12,0a2.48,2.48,0,0,1,.91.21,2.21,2.21,0,0,0,1.18-4.27,11.17,11.17,0,0,0-2.62-.39,2.23,2.23,0,0,0-2.21,2.21,2.26,2.26,0,0,0,2.21,2.21Z" style="fill:#eac9a5"/><path d="M136.69,85.86l.47,0,.19,0-.12,0a2.48,2.48,0,0,1,.91.21,2.21,2.21,0,1,0,1.18-4.27,11.17,11.17,0,0,0-2.62-.39,2.23,2.23,0,0,0-2.21,2.21,2.26,2.26,0,0,0,2.21,2.21Z" style="fill:#eac9a5"/><path d="M188.57,187.27l-.47,0c-.13,0-.51,0-.06,0a3.12,3.12,0,0,1-.92-.2,2.21,2.21,0,1,0-1.18,4.27,11.17,11.17,0,0,0,2.62.37,2.23,2.23,0,0,0,2.21-2.21,2.25,2.25,0,0,0-2.21-2.21Z" style="fill:#ff9eff"/><line x1="169.17" y1="176.72" x2="166.21" y2="182.9" style="fill:none;stroke:#7f50ff;stroke-linecap:round;stroke-miterlimit:10;stroke-width:3.42055855819788px"/><path d="M3.47,83.71c-2.26-5,1.32-10.07,1.32-10.07C51.93,73.72,119.63,91,119.63,91l-.84,6.41S35,79.8,3.47,83.71Z" style="fill:#889ba8"/><path d="M137.63,90.44l.52-4,25.54,3.36.5-3.82-31.92-4.2a14,14,0,0,0-15.66,12h0a14,14,0,0,0,12,15.66l31.92,4.2.5-3.82-25.54-3.36.52-4,25.54,3.36.53-4.07-25.54-3.36.52-4,25.54,3.36.54-4.07Z" style="fill:#9eb0b9"/></g></g></svg>
